<?xml version="1.0" standalone="no"?>
<!DOCTYPE svg PUBLIC "-//W3C//DTD SVG 20010904//EN"
 "http://www.w3.org/TR/2001/REC-SVG-20010904/DTD/svg10.dtd">
<svg version="1.0" xmlns="http://www.w3.org/2000/svg"
 width="85.000000pt" height="87.000000pt" viewBox="0 0 85.000000 87.000000"
 preserveAspectRatio="xMidYMid meet">

<g transform="translate(0.000000,87.000000) scale(0.100000,-0.100000)"
fill="#000000" stroke="none">
<path d="M333 795 c-98 -27 -191 -103 -233 -192 -23 -50 -24 -54 -9 -50 6 1
14 -4 16 -10 3 -8 -4 -13 -16 -13 -27 0 -27 -24 -1 -50 16 -16 17 -20 5 -20
-8 0 -15 5 -15 10 0 6 -4 10 -10 10 -13 0 -13 -75 1 -122 5 -21 16 -38 24 -38
8 0 11 -8 8 -22 -4 -19 -3 -20 7 -8 9 12 10 11 8 -10 -2 -30 19 -73 33 -65 5
4 9 2 9 -3 0 -5 9 -12 20 -15 11 -3 20 -12 20 -21 0 -9 4 -16 8 -16 5 0 17 -8
28 -18 33 -30 70 -42 101 -31 28 9 28 9 -4 4 -34 -5 -46 10 -15 18 16 4 16 5
0 6 -10 0 -18 5 -18 10 0 5 -16 8 -35 6 -19 -1 -32 2 -29 6 6 10 -43 59 -59
59 -31 0 -37 25 -37 157 0 82 4 133 10 133 6 0 10 7 10 15 0 10 11 15 35 15
44 0 44 -7 3 -25 l-33 -13 3 -121 3 -121 30 0 c26 0 29 3 29 30 0 37 12 39 30
5 10 -19 19 -24 34 -19 32 10 32 11 -1 58 -31 44 -31 45 -18 90 18 59 34 88
45 81 5 -3 12 4 15 16 4 11 9 19 11 17 2 -2 -5 -26 -15 -54 -28 -76 -34 -107
-19 -98 8 5 8 1 -2 -11 -14 -17 -13 -17 10 -10 20 7 23 5 14 -6 -8 -10 -9 -21
-2 -39 l11 -25 9 35 c7 24 6 40 -1 52 -19 30 -13 83 11 104 21 19 21 19 14 -1
-10 -25 -18 -65 -10 -47 3 6 10 12 15 12 14 0 11 -28 -3 -33 -10 -3 -10 -7 -1
-17 7 -8 10 -30 6 -59 -4 -36 -1 -51 12 -64 22 -23 57 -21 90 4 23 19 26 27
21 58 -9 54 -10 64 -2 91 5 19 1 33 -15 54 -19 24 -27 27 -58 22 -47 -7 -18 9
32 18 29 5 39 3 43 -8 3 -9 10 -14 14 -11 5 3 6 -5 3 -17 l-6 -23 27 24 c14
14 26 30 26 38 0 8 12 13 33 12 30 -1 31 -1 7 -9 -24 -8 -23 -8 8 -9 22 -1 31
3 26 10 -14 23 45 -24 61 -48 13 -19 16 -37 11 -73 -7 -51 -1 -62 44 -75 22
-7 23 -6 12 7 -10 13 -9 22 9 52 17 29 19 39 9 51 -6 8 -9 19 -6 24 4 5 1 13
-5 16 -6 4 -8 18 -4 32 5 20 3 24 -9 20 -9 -4 -16 -2 -16 3 0 6 5 10 10 10 6
0 10 8 9 18 0 11 -2 12 -6 4 -4 -10 -8 -9 -19 5 -18 24 -18 38 1 23 11 -9 15
-9 15 -1 0 6 -7 14 -15 17 -8 4 -15 13 -15 21 0 8 -5 11 -12 7 -8 -5 -9 -2 -5
10 4 9 3 15 -2 11 -12 -7 -41 5 -41 17 0 6 7 7 16 4 8 -3 12 -2 9 4 -3 6 -13
10 -21 10 -9 0 -12 5 -8 12 4 6 -9 2 -29 -11 -37 -23 -50 -15 -22 13 21 21 19
31 -11 46 -23 13 -27 12 -36 -3 -5 -10 -13 -15 -18 -12 -4 3 -11 -10 -14 -29
-7 -37 -46 -80 -53 -58 -3 7 -11 19 -19 26 -16 17 -18 36 -4 36 6 0 10 9 10
21 0 11 7 27 15 36 9 8 14 17 13 19 -12 11 -121 10 -165 -1z m-113 -105 c0 -5
-4 -10 -10 -10 -5 0 -10 5 -10 10 0 6 5 10 10 10 6 0 10 -4 10 -10z m70 -30
c0 -5 -4 -10 -9 -10 -5 0 -17 -3 -27 -7 -16 -6 -17 -5 -4 10 17 18 40 22 40 7z
m155 -30 c0 -34 -1 -35 -44 -38 -47 -4 -61 7 -61 45 0 26 13 32 65 30 39 -2
40 -3 40 -37z m129 -15 c-4 -8 -10 -15 -15 -15 -4 0 -6 7 -3 15 4 8 10 15 15
15 4 0 6 -7 3 -15z m-379 -35 c4 -6 -8 -10 -29 -10 -20 0 -36 5 -36 10 0 6 13
10 29 10 17 0 33 -4 36 -10z m539 -35 c-3 -7 -18 -12 -33 -11 -18 1 -27 5 -24
13 4 9 10 10 23 3 21 -11 30 -4 23 18 -4 14 -3 14 5 3 6 -8 8 -20 6 -26z
m-214 11 c0 -11 -19 -15 -25 -6 -3 5 1 10 9 10 9 0 16 -2 16 -4z m-210 -16 c0
-13 -11 -13 -30 0 -12 8 -11 10 8 10 12 0 22 -4 22 -10z m-37 -32 c-13 -6 -28
-26 -35 -44 -16 -46 -28 -43 -28 7 0 32 3 40 15 36 8 -4 17 -2 20 3 4 6 16 10
28 9 l22 0 -22 -11z m-163 -18 c0 -5 -5 -10 -11 -10 -5 0 -7 5 -4 10 3 6 8 10
11 10 2 0 4 -4 4 -10z m360 -49 c0 -5 -7 -14 -15 -21 -18 -15 -42 1 -31 19 8
13 46 15 46 2z m20 -25 c0 -3 -4 -8 -10 -11 -5 -3 -10 -1 -10 4 0 6 5 11 10
11 6 0 10 -2 10 -4z m-70 -67 c0 -5 -4 -9 -10 -9 -5 0 -10 7 -10 16 0 8 5 12
10 9 6 -3 10 -10 10 -16z m40 -23 c0 -8 -4 -17 -9 -21 -12 -7 -24 12 -16 25 9
15 25 12 25 -4z m-37 -27 c3 -13 1 -19 -6 -16 -15 5 -22 37 -9 37 5 0 12 -9
15 -21z m-132 -167 c-7 -2 -18 1 -23 6 -8 8 -4 9 13 5 13 -4 18 -8 10 -11z"/>
<path d="M517 793 c-12 -11 6 -33 27 -32 11 0 15 3 8 6 -6 2 -10 8 -7 13 6 9
-20 21 -28 13z"/>
<path d="M505 730 c-3 -5 -1 -10 4 -10 6 0 11 5 11 10 0 6 -2 10 -4 10 -3 0
-8 -4 -11 -10z"/>
<path d="M595 503 c-41 -10 -62 -77 -31 -102 7 -6 12 -23 10 -39 -2 -15 -1
-20 2 -11 4 13 16 16 57 13 l52 -3 3 51 c4 82 -23 108 -93 91z m52 -77 c-9
-23 -37 -20 -37 3 0 21 20 33 34 20 5 -4 6 -15 3 -23z m-67 3 c0 -5 -4 -9 -10
-9 -5 0 -10 7 -10 16 0 8 5 12 10 9 6 -3 10 -10 10 -16z m90 -19 c0 -5 -5 -10
-11 -10 -5 0 -7 5 -4 10 3 6 8 10 11 10 2 0 4 -4 4 -10z"/>
<path d="M524 374 c3 -9 6 -18 6 -20 0 -3 4 -3 10 1 11 7 2 35 -12 35 -6 0 -7
-7 -4 -16z"/>
<path d="M717 266 c-4 -9 3 -16 19 -20 29 -8 31 -22 3 -31 -19 -6 -19 -8 -4
-24 9 -11 13 -25 9 -35 -5 -13 -9 -14 -14 -6 -11 17 -30 3 -30 -21 0 -24 -15
-24 -32 0 -14 20 -14 20 -26 0 -17 -27 -32 -24 -32 6 0 18 -5 25 -20 25 -20 0
-20 0 2 -30 18 -26 28 -30 66 -30 38 0 50 5 78 36 27 28 34 44 34 74 0 50 -10
77 -21 58 -7 -10 -9 -10 -9 0 0 16 -17 15 -23 -2z m8 -126 c3 -5 1 -10 -4 -10
-6 0 -11 5 -11 10 0 6 2 10 4 10 3 0 8 -4 11 -10z"/>
<path d="M348 173 c6 -2 18 -2 25 0 6 3 1 5 -13 5 -14 0 -19 -2 -12 -5z"/>
<path d="M371 118 c16 -31 31 -39 46 -26 9 7 13 7 13 -1 0 -6 15 -11 33 -11
24 0 28 3 17 10 -11 7 -7 10 18 10 18 0 31 4 28 9 -3 5 -27 6 -53 4 -34 -4
-45 -2 -38 5 6 6 30 12 55 15 25 2 7 4 -43 5 l-88 2 12 -22z"/>
</g>
</svg>
